<?xml version="1.0" encoding="UTF-8" standalone="no"?>
<svg
   version="1.1"
   width="52.235px"
   height="52.235px"
   viewBox="0 0 52.235 52.235"
   xmlns="http://www.w3.org/2000/svg"
   xmlns:svg="http://www.w3.org/2000/svg">
<path
   d="M 44.611,7.675 C 34.425,-2.537 17.891,-2.562 7.677,7.622 -2.537,17.807 -2.561,34.345 7.621,44.559 17.807,54.774 34.349,54.795 44.558,44.61 54.772,34.426 54.798,17.892 44.611,7.675 Z"
   style="fill:CurrentColor" />
<path
   d="m 26.219253,8.800262 c -4.414,0 -10,7.723 -10,7.723 v 24.277 h 20 v -24.277 c 0,0 -5.585,-7.723 -9.999,-7.723 z m 0,11.035 a 3.3115,3.3115 0 1 1 0,-6.623 3.3115,3.3115 0 0 1 0,6.623 z"
   style="fill:#ffffff" /></svg>
